<svg width="13" height="16" viewBox="0 0 13 16" fill="none" xmlns="http://www.w3.org/2000/svg">
<path d="M2.4 6.1H2.9V5.6V4C2.9 2.07054 4.47054 0.5 6.4 0.5C8.32946 0.5 9.9 2.07054 9.9 4V5.6V6.1H10.4H11.2C11.8063 6.1 12.3 6.59374 12.3 7.2V14.4C12.3 15.0063 11.8063 15.5 11.2 15.5H1.6C0.993742 15.5 0.5 15.0063 0.5 14.4V7.2C0.5 6.59374 0.993743 6.1 1.6 6.1H2.4ZM8.8 6.1H9.3V5.6V4C9.3 2.40066 7.99934 1.1 6.4 1.1C4.80066 1.1 3.5 2.40066 3.5 4V5.6V6.1H4H8.8ZM11.2016 14.9H11.7017L11.7016 14.3999L11.7 7.19989L11.6999 6.7H11.2H1.6H1.1V7.2V14.4V14.9H1.6H5.6H6.1V14.4V12.5776V12.2904L5.85189 12.1457C5.51917 11.9516 5.3 11.5993 5.3 11.2C5.3 10.5937 5.79374 10.1 6.4 10.1C7.00626 10.1 7.5 10.5937 7.5 11.2C7.5 11.5999 7.28096 11.9516 6.94811 12.1457L6.7 12.2904V12.5776V14.4V14.9H7.2H11.2016Z" fill="#6A6A6A" stroke="#6A6A6A"/>
</svg>
