<svg width="39" height="39" viewBox="0 0 39 39" fill="none" xmlns="http://www.w3.org/2000/svg">
<circle cx="19.5" cy="19.5" r="19.5" fill="black"/>
<path d="M25.0652 9C27.3336 9 29.1739 10.7629 29.1739 12.9375V23.4375C29.1739 25.3693 27.6674 27.0346 25.7029 27.3299L27.6717 29.2166C27.9713 29.5037 27.7573 30 27.295 30H25.6344C25.2707 30 24.9197 29.8605 24.6629 29.6145L22.3261 27.375H16.8478L14.511 29.6145C14.2529 29.8605 13.9045 30 13.5416 30H11.8421C11.4149 30 11.2009 29.5037 11.5031 29.2166L13.4727 27.3299C11.5057 27.0346 10 25.3693 10 23.4375V12.9375C10 10.7629 11.8395 9 14.1087 9H25.0652ZM12.7391 18.1875C12.7391 18.9135 13.3524 19.5 14.1087 19.5H17.5326C18.2901 19.5 18.9022 18.9135 18.9022 18.1875V14.25C18.9022 13.524 18.2901 12.9375 17.5326 12.9375H14.1087C13.3524 12.9375 12.7391 13.524 12.7391 14.25V18.1875ZM21.6413 12.9375C20.8838 12.9375 20.2717 13.524 20.2717 14.25V18.1875C20.2717 18.9135 20.8838 19.5 21.6413 19.5H25.0652C25.8228 19.5 26.4348 18.9135 26.4348 18.1875V14.25C26.4348 13.524 25.8228 12.9375 25.0652 12.9375H21.6413ZM14.1087 22.125C13.3524 22.125 12.7391 22.7115 12.7391 23.4375C12.7391 24.1635 13.3524 24.75 14.1087 24.75C14.8662 24.75 15.4783 24.1635 15.4783 23.4375C15.4783 22.7115 14.8662 22.125 14.1087 22.125ZM25.0652 24.75C25.8228 24.75 26.4348 24.1635 26.4348 23.4375C26.4348 22.7115 25.8228 22.125 25.0652 22.125C24.3077 22.125 23.6957 22.7115 23.6957 23.4375C23.6957 24.1635 24.3077 24.75 25.0652 24.75Z" fill="white"/>
</svg>
